<?xml version="1.0" encoding="UTF-8" standalone="no"?>
<!-- Created with Inkscape (http://www.inkscape.org/) -->

<svg
   width="2048"
   height="2048"
   viewBox="0 0 541.86665 541.86666"
   version="1.1"
   id="svg1"
   inkscape:version="1.3.2 (091e20e, 2023-11-25, custom)"
   xml:space="preserve"
   sodipodi:docname="rabbit.svg"
   xmlns:inkscape="http://www.inkscape.org/namespaces/inkscape"
   xmlns:sodipodi="http://sodipodi.sourceforge.net/DTD/sodipodi-0.dtd"
   xmlns="http://www.w3.org/2000/svg"
   xmlns:svg="http://www.w3.org/2000/svg"><sodipodi:namedview
     id="namedview1"
     pagecolor="#e5e2dc"
     bordercolor="#000000"
     borderopacity="0.25"
     inkscape:showpageshadow="2"
     inkscape:pageopacity="0.0"
     inkscape:pagecheckerboard="0"
     inkscape:deskcolor="#d1d1d1"
     inkscape:document-units="mm"
     inkscape:zoom="0.10144043"
     inkscape:cx="-98.580024"
     inkscape:cy="-1049.8773"
     inkscape:window-width="1920"
     inkscape:window-height="1027"
     inkscape:window-x="-8"
     inkscape:window-y="-8"
     inkscape:window-maximized="1"
     inkscape:current-layer="layer3" /><defs
     id="defs1" /><g
     inkscape:groupmode="layer"
     id="layer3"
     inkscape:label="Layer 3"
     style="display:inline"><circle
       style="display:inline;opacity:0.586667;fill:#18a3f8;stroke:#085888;stroke-width:4.99999;stroke-linecap:round;stroke-linejoin:round;stroke-miterlimit:50;fill-opacity:1;stroke-opacity:1"
       id="path1"
       cx="296.93561"
       cy="269.27078"
       r="149.38995" /><path
       style="opacity:1;fill:#ffdac1;fill-opacity:1;stroke:#1f424e;stroke-width:3;stroke-linecap:round;stroke-linejoin:round;stroke-miterlimit:50;stroke-dasharray:none;stroke-opacity:1"
       d="m 216.59989,149.23169 c 0,0 -27.99539,-40.75977 -19.64589,-68.75142 28.10369,28.29758 82.32723,85.59253 76.12784,98.70739 -10.0958,21.35766 -56.48195,-29.95597 -56.48195,-29.95597 z"
       id="path10"
       sodipodi:nodetypes="ccsc" /><path
       style="display:inline;opacity:1;fill:#ffece0;fill-opacity:1;stroke:#464a23;stroke-width:5;stroke-linecap:round;stroke-linejoin:round;stroke-miterlimit:50;stroke-opacity:1"
       d="m 239.19266,231.7334 c 0,0 -45.18554,0.49106 -86.93306,-41.74194 -28.07641,-28.40291 -46.16785,-67.27818 -46.16785,-67.27818 0,0 55.31579,13.80803 84.96848,20.13434 57.8818,12.34891 72.19866,40.75978 72.19866,40.75978 0,0 44.20325,-15.22353 70.72519,-10.31272 26.52195,4.91081 35.85377,11.29488 36.83606,15.71462 0.98229,4.41973 27.01311,-1.47324 31.43343,13.25919 4.42033,14.73245 10.80523,42.23303 -17.19016,74.64441 -22.01996,25.49339 -13.75211,18.66111 -13.75211,18.66111 0,0 -5.40261,0.49109 7.36721,19.64324 12.76981,19.15219 26.59947,68.4474 17.6813,81.02845 -26.38696,37.22467 -57.81004,-4.33019 -113.63922,25.04518 -36.90706,19.41921 -117.20002,6.38405 -117.20002,6.38405 0,0 27.87262,-23.32637 55.00851,-48.43291 27.13587,-25.10655 53.53505,-51.99326 50.58816,-59.11393 -5.89377,-14.24136 -33.88916,-18.6611 -35.85375,-59.91198 -1.07183,-22.50545 3.92917,-28.48271 3.92917,-28.48271 z"
       id="path9"
       sodipodi:nodetypes="cscscsssscssscsssc" /><path
       id="use10"
       style="opacity:0.663653;fill:none;stroke:#464a23;stroke-width:5;stroke-linecap:round;stroke-linejoin:round;stroke-miterlimit:50;stroke-opacity:1"
       d="m 335.42747,217.15491 c -2.26993,0.0751 -4.61923,1.02474 -6.4773,2.05625 l 3.5692,2.24173 c 2.25442,-1.3331 5.80941,-2.50871 8.40282,-1.62475 0.66007,0.22498 1.19226,0.72316 1.78845,1.08481 -0.75005,-0.10065 -1.73359,-0.85502 -2.25029,-0.30215 -0.53177,0.569 0.45245,1.53042 0.37762,2.30557 -0.26781,2.77323 -2.60176,5.24007 -4.97674,6.4258 -0.79216,0.39548 -1.69031,0.52849 -2.53544,0.79256 -0.27994,-0.01 -0.60147,-0.10406 -0.91926,-0.19099 -0.25658,-0.26037 -0.54015,-0.53174 -0.62752,-0.81348 -0.59493,-1.91791 -0.19916,-2.25256 0.39303,-3.95675 l -3.58243,-1.97863 c -0.22387,0.64461 -0.58696,1.25695 -0.67155,1.93406 -0.54373,4.35208 2.51856,5.81623 6.3793,7.31742 0.7342,0.28546 1.57504,-0.0324 2.3626,-0.049 0.86133,-0.30131 1.77791,-0.47638 2.58387,-0.90431 2.47939,-1.31646 4.85085,-3.88934 5.23159,-6.78573 0.10774,-0.81961 0.22656,-1.81138 -0.28073,-2.4641 -1.24197,-1.5979 -3.10646,-2.59488 -4.65966,-3.89235 -0.62839,-0.31666 -1.20715,-0.76229 -1.88534,-0.94998 -0.71784,-0.19865 -1.46558,-0.27104 -2.22222,-0.24602 z" /></g></svg>
